<?xml version="1.0" standalone="no"?><!DOCTYPE svg PUBLIC "-//W3C//DTD SVG 1.1//EN" "http://www.w3.org/Graphics/SVG/1.1/DTD/svg11.dtd"><svg t="1590945670779" class="icon" viewBox="0 0 1024 1024" version="1.1" xmlns="http://www.w3.org/2000/svg" p-id="2411" xmlns:xlink="http://www.w3.org/1999/xlink" width="200" height="200"><defs><style type="text/css"></style></defs><path d="M341.205333 682.666667H170.922667A85.12 85.12 0 0 1 85.333333 597.418667V426.581333C85.333333 379.178667 123.648 341.333333 170.922667 341.333333h170.282666A85.333333 85.333333 0 0 1 426.666667 426.666667H170.922667C170.538667 426.666667 170.666667 597.418667 170.666667 597.418667c0 0.128 256-0.085333 256-0.085334 0 47.146667-38.101333 85.333333-85.461334 85.333334z m511.872-85.333334c0.426667 0 0.256-170.752 0.256-170.752L597.333333 426.666667c0-47.146667 38.101333-85.333333 85.461334-85.333334h170.282666C900.352 341.333333 938.666667 379.178667 938.666667 426.581333v170.837334A85.12 85.12 0 0 1 853.077333 682.666667h-170.282666A85.333333 85.333333 0 0 1 597.333333 597.333333h255.744z m-213.205333-128A42.410667 42.410667 0 0 1 682.666667 512c0 23.722667-19.157333 42.666667-42.794667 42.666667H384.128A42.410667 42.410667 0 0 1 341.333333 512c0-23.722667 19.157333-42.666667 42.794667-42.666667h255.744z" p-id="2412"></path></svg>